<svg width="81" height="24" viewBox="0 0 81 24" fill="none" xmlns="http://www.w3.org/2000/svg">
<path d="M0.464 23V0.664H5.328V18.68H13.84V23H0.464ZM25.1115 23.384C23.6395 23.384 22.2955 23.1387 21.0795 22.648C19.8635 22.1573 18.8288 21.432 17.9755 20.472C17.1222 19.4907 16.4608 18.2853 15.9915 16.856C15.5222 15.4053 15.2875 13.7307 15.2875 11.832C15.2875 9.93333 15.5222 8.26933 15.9915 6.84C16.4608 5.38933 17.1222 4.184 17.9755 3.224C18.8288 2.24267 19.8635 1.50667 21.0795 1.016C22.2955 0.525332 23.6395 0.279999 25.1115 0.279999C26.5835 0.279999 27.9275 0.525332 29.1435 1.016C30.3595 1.50667 31.3942 2.24267 32.2475 3.224C33.1008 4.184 33.7622 5.38933 34.2315 6.84C34.7008 8.26933 34.9355 9.93333 34.9355 11.832C34.9355 13.7307 34.7008 15.4053 34.2315 16.856C33.7622 18.2853 33.1008 19.4907 32.2475 20.472C31.3942 21.432 30.3595 22.1573 29.1435 22.648C27.9275 23.1387 26.5835 23.384 25.1115 23.384ZM25.1115 19.064C26.5835 19.064 27.7248 18.584 28.5355 17.624C29.3675 16.664 29.7835 15.288 29.7835 13.496V10.168C29.7835 8.376 29.3675 7 28.5355 6.04C27.7248 5.08 26.5835 4.6 25.1115 4.6C23.6395 4.6 22.4875 5.08 21.6555 6.04C20.8448 7 20.4395 8.376 20.4395 10.168V13.496C20.4395 15.288 20.8448 16.664 21.6555 17.624C22.4875 18.584 23.6395 19.064 25.1115 19.064ZM53.1713 19.448H53.0113C52.8406 20.5787 52.2646 21.5173 51.2833 22.264C50.3019 23.0107 48.9686 23.384 47.2833 23.384C46.0033 23.384 44.8086 23.1387 43.6993 22.648C42.5899 22.1573 41.6193 21.432 40.7873 20.472C39.9553 19.512 39.3046 18.3173 38.8353 16.888C38.3659 15.4587 38.1313 13.8053 38.1313 11.928C38.1313 10.0507 38.3766 8.38667 38.8673 6.936C39.3579 5.48533 40.0406 4.26933 40.9153 3.288C41.8113 2.30666 42.8779 1.56 44.1153 1.048C45.3526 0.535999 46.7286 0.279999 48.2433 0.279999C50.2486 0.279999 51.9766 0.717332 53.4272 1.592C54.8779 2.44533 56.0193 3.736 56.8513 5.464L52.8833 7.736C52.5419 6.86133 52.0086 6.12533 51.2833 5.528C50.5579 4.90933 49.5446 4.6 48.2433 4.6C46.7286 4.6 45.5233 5.03733 44.6273 5.912C43.7313 6.78667 43.2833 8.16267 43.2833 10.04V13.624C43.2833 15.48 43.7313 16.856 44.6273 17.752C45.5233 18.6267 46.7286 19.064 48.2433 19.064C48.8406 19.064 49.4059 19 49.9393 18.872C50.4726 18.7227 50.9419 18.5093 51.3473 18.232C51.7526 17.9333 52.0619 17.5813 52.2753 17.176C52.5099 16.7707 52.6273 16.2907 52.6273 15.736V14.616H48.4673V10.552H57.2673V23H53.1713V19.448ZM70.9553 23.384C69.4833 23.384 68.1393 23.1387 66.9233 22.648C65.7073 22.1573 64.6726 21.432 63.8193 20.472C62.9659 19.4907 62.3046 18.2853 61.8353 16.856C61.3659 15.4053 61.1313 13.7307 61.1313 11.832C61.1313 9.93333 61.3659 8.26933 61.8353 6.84C62.3046 5.38933 62.9659 4.184 63.8193 3.224C64.6726 2.24267 65.7073 1.50667 66.9233 1.016C68.1393 0.525332 69.4833 0.279999 70.9553 0.279999C72.4273 0.279999 73.7713 0.525332 74.9873 1.016C76.2033 1.50667 77.2379 2.24267 78.0913 3.224C78.9446 4.184 79.6059 5.38933 80.0753 6.84C80.5446 8.26933 80.7793 9.93333 80.7793 11.832C80.7793 13.7307 80.5446 15.4053 80.0753 16.856C79.6059 18.2853 78.9446 19.4907 78.0913 20.472C77.2379 21.432 76.2033 22.1573 74.9873 22.648C73.7713 23.1387 72.4273 23.384 70.9553 23.384ZM70.9553 19.064C72.4273 19.064 73.5686 18.584 74.3793 17.624C75.2113 16.664 75.6273 15.288 75.6273 13.496V10.168C75.6273 8.376 75.2113 7 74.3793 6.04C73.5686 5.08 72.4273 4.6 70.9553 4.6C69.4833 4.6 68.3313 5.08 67.4993 6.04C66.6886 7 66.2833 8.376 66.2833 10.168V13.496C66.2833 15.288 66.6886 16.664 67.4993 17.624C68.3313 18.584 69.4833 19.064 70.9553 19.064Z" fill="#584A4A" fill-opacity="0.74"/>
</svg>
